<?xml version="1.0" encoding="UTF-8"?>
<svg width="4448px" height="1444px" viewBox="0 0 4448 1444" version="1.1" xmlns="http://www.w3.org/2000/svg" xmlns:xlink="http://www.w3.org/1999/xlink">
    <!-- Generator: Sketch 44.1 (41455) - http://www.bohemiancoding.com/sketch -->
    <title>Group</title>
    <desc>Created with Sketch.</desc>
    <defs></defs>
    <g id="Page-1" stroke="none" stroke-width="1" fill="none" fill-rule="evenodd">
        <g id="Group" fill-rule="nonzero" fill="#FFFFFF">
            <g id="warplabs-name" transform="translate(1643.000000, 154.000000)">
                <path d="M552.365506,958 C548.599665,958 545.17011,955.892983 542.076741,951.678886 C538.983371,947.464788 536.36077,940.207285 534.208861,929.906158 L407.112342,332.912023 L270.735759,929.906158 C268.58385,940.207285 266.095742,947.464788 263.271361,951.678886 C260.44698,955.892983 257.420902,958 254.193038,958 L230.791139,958 C223.259456,958 217.207301,948.63548 212.634494,929.906158 L3.2278481,47.7595308 C1.07593861,40.2678022 0,32.30796 0,23.8797654 C0,7.9598422 2.95883117,0 8.87658228,0 L163.813291,0 C168.386099,0 172.353622,2.10701705 175.715981,6.32111437 C179.07834,10.5352117 182.104417,17.7927149 184.794304,28.0938416 L306.242089,556.258065 L428.496835,28.0938416 C430.648745,17.7927149 433.473084,10.5352117 436.969937,6.32111437 C440.46679,2.10701705 444.501559,0 449.074367,0 L474.493671,0 C479.066479,0 483.101248,2.10701705 486.598101,6.32111437 C490.094954,10.5352117 492.919293,17.7927149 495.071203,28.0938416 L616.115506,591.375367 L742.808544,28.0938416 C745.229442,17.7927149 748.188274,10.5352117 751.685127,6.32111437 C755.18198,2.10701705 759.216749,0 763.789557,0 L778.314873,0 C783.963636,0 786.787975,7.49161619 786.787975,22.4750733 C786.787975,29.9668019 785.981021,37.9266441 784.367089,46.3548387 L592.310127,929.906158 C590.158217,940.207285 587.602863,947.464788 584.643987,951.678886 C581.685112,955.892983 578.591788,958 575.363924,958 L552.365506,958 Z M767.420886,958 C755.316395,958 749.264241,950.146001 749.264241,934.437768 L749.264241,859.038627 C749.264241,843.679465 755.316395,836 767.420886,836 L831.574367,836 C843.678858,836 849.731013,843.679465 849.731013,859.038627 L849.731013,934.437768 C849.731013,950.146001 843.678858,958 831.574367,958 L767.420886,958 Z M1264.10601,958 C1255.49837,958 1248.50477,948.63548 1243.125,929.906158 L1086.97785,366.624633 L963.512658,792.246334 L1146.69304,792.246334 C1153.95573,792.246334 1157.58703,804.888437 1157.58703,830.173021 L1157.58703,920.073314 C1157.58703,945.357898 1153.95573,958 1146.69304,958 L879.992089,958 C874.881304,958 872.325949,950.040158 872.325949,934.120235 C872.325949,931.310836 872.527688,927.799141 872.931171,923.585044 C873.334654,919.370947 874.208854,915.391026 875.553797,911.645161 L1128.53639,26.6891496 C1133.64718,8.89629422 1139.29586,0 1145.48259,0 L1172.11234,0 C1178.83706,0 1184.75472,8.89629422 1189.86551,26.6891496 L1439.21677,908.835777 C1440.56172,913.518107 1441.43592,918.200368 1441.8394,922.882698 C1442.24288,927.565028 1442.44462,931.779062 1442.44462,935.524927 C1442.44462,950.508384 1439.3513,958 1433.16456,958 L1264.10601,958 Z M1484.00316,958 C1471.89867,958 1465.84652,950.146001 1465.84652,934.437768 L1465.84652,859.038627 C1465.84652,843.679465 1471.89867,836 1484.00316,836 L1548.15665,836 C1560.26114,836 1566.31329,843.679465 1566.31329,859.038627 L1566.31329,934.437768 C1566.31329,950.146001 1560.26114,958 1548.15665,958 L1484.00316,958 Z M1948.40981,958 C1937.65026,958 1928.77377,945.357898 1921.78006,920.073314 L1800.33228,486.02346 C1798.18037,478.531732 1796.49921,471.274229 1795.28877,464.250733 C1794.07832,457.227238 1793.4731,447.160378 1793.4731,434.049853 L1793.4731,390.504399 C1793.4731,366.156281 1796.9699,353.982405 1803.96361,353.982405 L1859.24051,353.982405 C1872.15196,353.982405 1881.76816,345.554336 1888.0894,328.697947 C1894.41063,311.841558 1897.5712,288.430257 1897.5712,258.463343 C1897.5712,195.720116 1884.79443,164.348974 1859.24051,164.348974 L1769.26424,164.348974 L1769.26424,920.073314 C1769.26424,945.357898 1765.63295,958 1758.37025,958 L1619.97627,958 C1612.71357,958 1609.08228,945.357898 1609.08228,920.073314 L1609.08228,36.5219941 C1609.08228,12.1738763 1612.71357,0 1619.97627,0 L1972.61867,0 C1984.72316,0 1996.02052,5.85282515 2006.51108,17.558651 C2017.00163,29.2644769 2026.07987,45.8865003 2033.74604,67.4252199 C2041.41222,88.9639396 2047.39713,114.71637 2051.70095,144.683284 C2056.00477,174.650199 2058.15665,207.894246 2058.15665,244.416422 C2058.15665,283.747997 2056.07201,319.099061 2051.90269,350.470674 C2047.73337,381.842288 2042.08469,408.765284 2034.95649,431.240469 C2027.82829,453.715655 2019.48976,471.976469 2009.94066,486.02346 C2000.39157,500.070451 1990.2374,509.903198 1979.47785,515.521994 L2090.83861,913.049853 C2092.72153,918.66865 2093.66297,926.160266 2093.66297,935.524927 C2093.66297,941.143723 2093.05776,946.294209 2091.84731,950.97654 C2090.63686,955.65887 2088.82121,958 2086.40032,958 L1948.40981,958 Z M2136.83544,958 C2124.73095,958 2118.6788,950.146001 2118.6788,934.437768 L2118.6788,859.038627 C2118.6788,843.679465 2124.73095,836 2136.83544,836 L2200.98892,836 C2213.09341,836 2219.14557,843.679465 2219.14557,859.038627 L2219.14557,934.437768 C2219.14557,950.146001 2213.09341,958 2200.98892,958 L2136.83544,958 Z M2449.53323,619.469208 C2442.53952,619.469208 2439.04272,606.827106 2439.04272,581.542522 L2439.04272,491.642229 C2439.04272,466.357645 2442.53952,453.715543 2449.53323,453.715543 L2501.1788,453.715543 C2507.63453,453.715543 2513.61943,451.140299 2519.1337,445.989736 C2524.64797,440.839173 2529.42245,432.645217 2533.45728,421.407625 C2537.49211,410.170032 2540.71992,395.420912 2543.14082,377.159824 C2545.56172,358.898736 2546.77215,336.189774 2546.77215,309.032258 C2546.77215,259.399556 2542.33391,222.877927 2533.45728,199.466276 C2524.58065,176.054624 2513.82127,164.348974 2501.1788,164.348974 L2414.83386,164.348974 L2414.83386,920.073314 C2414.83386,945.357898 2411.20257,958 2403.93987,958 L2265.54589,958 C2258.55218,958 2255.05538,945.357898 2255.05538,920.073314 L2255.05538,36.5219941 C2255.05538,12.1738763 2258.55218,0 2265.54589,0 L2610.52215,0 C2623.7026,0 2636.07589,7.02339018 2647.64241,21.0703812 C2659.20892,35.1173723 2669.2286,55.4852038 2677.70174,82.1744868 C2686.17488,108.86377 2692.83225,141.873704 2697.67405,181.205279 C2702.51585,220.536854 2704.93671,265.018325 2704.93671,314.651026 C2704.93671,365.220194 2702.24686,409.467552 2696.86709,447.394428 C2691.48731,485.321304 2684.09024,516.92656 2674.67563,542.211144 C2665.26103,567.495728 2654.16541,586.692994 2641.38845,599.803519 C2628.61149,612.914044 2614.82602,619.469208 2600.03165,619.469208 L2449.53323,619.469208 Z M2722.68987,958 C2710.58538,958 2704.53323,950.146001 2704.53323,934.437768 L2704.53323,859.038627 C2704.53323,843.679465 2710.58538,836 2722.68987,836 L2786.84335,836 C2798.94785,836 2805,843.679465 2805,859.038627 L2805,934.437768 C2805,950.146001 2798.94785,958 2786.84335,958 L2722.68987,958 Z" id="W.A.R.P."></path>
                <path d="M9.67418373,1037 C16.3816513,1037 19.7353348,1038.14265 19.7353348,1040.42798 L19.7353348,1127.3615 C19.7353348,1128.45845 21.1542009,1129.00693 23.9919757,1129.00693 L175.296209,1129.00693 C181.745697,1129.00693 184.970393,1130.14957 184.970393,1132.4349 C184.970393,1134.81165 181.745697,1136 175.296209,1136 L9.67418373,1136 C3.22469566,1136 0,1134.81165 0,1132.4349 L0,1040.42798 C0,1038.14265 3.22469566,1037 9.67418373,1037 Z M356.396929,1037 C365.684191,1037 373.552449,1038.05124 380.001937,1040.15374 C386.451425,1042.25624 390.32106,1044.90719 391.610957,1048.10665 L424.890149,1132.02355 C425.148129,1132.11496 425.277117,1132.34349 425.277117,1132.70914 C425.277117,1134.90306 421.794445,1136 414.828998,1136 C409.411428,1136 406.315721,1134.99447 405.541782,1132.98338 L394.706696,1107.20499 C394.448717,1106.29085 392.900863,1105.8338 390.063088,1105.8338 L271.264112,1105.8338 C268.426337,1105.8338 266.878483,1106.29085 266.620504,1107.20499 L255.785418,1132.98338 C255.011479,1134.99447 251.915771,1136 246.498201,1136 C239.532754,1136 236.050083,1134.90306 236.050083,1132.70914 C236.050083,1132.34349 236.179071,1132.11496 236.43705,1132.02355 L269.716242,1048.10665 C271.00614,1044.90719 274.746787,1042.25624 280.938296,1040.15374 C287.129804,1038.05124 295.127049,1037 304.930271,1037 L356.396929,1037 Z M304.930271,1043.99307 C295.643008,1043.99307 290.354507,1045.68419 289.06461,1049.06648 L270.877144,1097.46953 C270.877144,1098.38366 272.296011,1098.84072 275.133785,1098.84072 L386.193414,1098.84072 C389.289169,1098.84072 390.837023,1098.38366 390.837023,1097.46953 L372.26259,1049.06648 C370.972692,1045.68419 365.684191,1043.99307 356.396929,1043.99307 L304.930271,1043.99307 Z M630.369812,1037 C647.138481,1037 655.52269,1039.87947 655.52269,1045.6385 L655.52269,1076.21607 C655.52269,1079.78118 649.847225,1082.47783 638.496126,1084.30609 C649.847225,1085.95153 655.52269,1088.55677 655.52269,1092.12188 L655.52269,1127.3615 C655.52269,1129.82965 653.200909,1131.88642 648.557277,1133.53186 C643.913646,1135.17729 637.851218,1136 630.369812,1136 L491.061566,1136 C484.612078,1136 481.387382,1134.81165 481.387382,1132.4349 L481.387382,1040.42798 C481.387382,1038.14265 484.612078,1037 491.061566,1037 L630.369812,1037 Z M505.379358,1043.99307 C502.541583,1043.99307 501.122717,1044.54155 501.122717,1045.6385 L501.122717,1078.82133 C501.122717,1079.91829 502.541583,1080.46676 505.379358,1080.46676 L614.504151,1080.46676 C628.177065,1080.46676 635.01342,1078.09005 635.01342,1073.33657 L635.01342,1045.6385 C635.01342,1044.54155 633.465566,1043.99307 630.369812,1043.99307 L505.379358,1043.99307 Z M505.379358,1087.45983 C502.541583,1087.45983 501.122717,1087.9626 501.122717,1088.96814 L501.122717,1127.3615 C501.122717,1128.45845 502.541583,1129.00693 505.379358,1129.00693 L630.756779,1129.00693 C633.852533,1129.00693 635.400387,1128.45845 635.400387,1127.3615 L635.400387,1094.45291 C635.400387,1092.44182 633.272088,1090.77355 629.015426,1089.44806 C624.758764,1088.12257 619.921721,1087.45983 614.504151,1087.45983 L505.379358,1087.45983 Z M868.354732,1037 C885.123401,1037 893.507609,1039.87947 893.507609,1045.6385 L893.507609,1127.3615 C893.507609,1129.82965 891.185828,1131.88642 886.542197,1133.53186 C881.898566,1135.17729 875.836138,1136 868.354732,1136 L743.364278,1136 C736.91479,1136 731.303819,1135.17729 726.531198,1133.53186 C721.758577,1131.88642 719.372302,1129.82965 719.372302,1127.3615 L719.372302,1045.6385 C719.372302,1039.87947 727.369547,1037 743.364278,1037 L868.354732,1037 Z M743.364278,1043.99307 C740.526503,1043.99307 739.107637,1044.54155 739.107637,1045.6385 L739.107637,1127.3615 C739.107637,1128.45845 740.526503,1129.00693 743.364278,1129.00693 L868.354732,1129.00693 C871.450486,1129.00693 872.99834,1128.45845 872.99834,1127.3615 L872.99834,1045.6385 C872.99834,1044.54155 871.450486,1043.99307 868.354732,1043.99307 L743.364278,1043.99307 Z M1120.65744,1037 C1127.36491,1037 1130.71859,1038.14265 1130.71859,1040.42798 L1130.71859,1086.91136 C1130.71859,1089.2881 1127.36491,1090.47645 1120.65744,1090.47645 L1096.66547,1090.47645 C1093.56971,1090.47645 1092.02186,1090.93351 1092.02186,1091.84765 C1092.02186,1092.30471 1092.15085,1092.57895 1092.40883,1092.67036 L1134.97524,1131.06371 C1135.49119,1131.79502 1135.74917,1132.25208 1135.74917,1132.4349 C1135.74917,1134.81165 1132.2665,1136 1125.30105,1136 C1120.65742,1136 1117.81969,1135.26871 1116.78777,1133.80609 L1069.96472,1091.57341 C1068.67482,1090.8421 1067.12697,1090.47645 1065.32111,1090.47645 L977.866491,1090.47645 C974.770737,1090.47645 973.222883,1091.02493 973.222883,1092.12188 L973.222883,1132.4349 C973.222883,1134.81165 969.998188,1136 963.5487,1136 C956.841232,1136 953.487548,1134.81165 953.487548,1132.4349 L953.487548,1040.42798 C953.487548,1038.14265 956.841232,1037 963.5487,1037 L1120.65744,1037 Z M1110.98326,1045.6385 C1110.98326,1044.54155 1109.43541,1043.99307 1106.33965,1043.99307 L977.866491,1043.99307 C974.770737,1043.99307 973.222883,1044.54155 973.222883,1045.6385 L973.222883,1081.83795 C973.222883,1082.93491 974.770737,1083.48338 977.866491,1083.48338 L1106.33965,1083.48338 C1109.43541,1083.48338 1110.98326,1082.93491 1110.98326,1081.83795 L1110.98326,1045.6385 Z M1308.33661,1037 C1317.62387,1037 1325.49213,1038.05124 1331.94162,1040.15374 C1338.3911,1042.25624 1342.26074,1044.90719 1343.55064,1048.10665 L1376.82983,1132.02355 C1377.08781,1132.11496 1377.2168,1132.34349 1377.2168,1132.70914 C1377.2168,1134.90306 1373.73412,1136 1366.76868,1136 C1361.35111,1136 1358.2554,1134.99447 1357.48146,1132.98338 L1346.64638,1107.20499 C1346.3884,1106.29085 1344.84054,1105.8338 1342.00277,1105.8338 L1223.20379,1105.8338 C1220.36602,1105.8338 1218.81816,1106.29085 1218.56018,1107.20499 L1207.7251,1132.98338 C1206.95116,1134.99447 1203.85545,1136 1198.43788,1136 C1191.47243,1136 1187.98976,1134.90306 1187.98976,1132.70914 C1187.98976,1132.34349 1188.11875,1132.11496 1188.37673,1132.02355 L1221.65592,1048.10665 C1222.94582,1044.90719 1226.68647,1042.25624 1232.87797,1040.15374 C1239.06948,1038.05124 1247.06673,1037 1256.86995,1037 L1308.33661,1037 Z M1256.86995,1043.99307 C1247.58269,1043.99307 1242.29419,1045.68419 1241.00429,1049.06648 L1222.81682,1097.46953 C1222.81682,1098.38366 1224.23569,1098.84072 1227.07346,1098.84072 L1338.13309,1098.84072 C1341.22885,1098.84072 1342.7767,1098.38366 1342.7767,1097.46953 L1324.20227,1049.06648 C1322.91237,1045.68419 1317.62387,1043.99307 1308.33661,1043.99307 L1256.86995,1043.99307 Z M1605.9145,1037 C1612.36399,1037 1615.58868,1038.14265 1615.58868,1040.42798 C1615.58868,1042.80472 1612.36399,1043.99307 1605.9145,1043.99307 L1534.71251,1043.99307 C1531.61675,1043.99307 1530.0689,1044.54155 1530.0689,1045.6385 L1530.0689,1132.4349 C1530.0689,1134.81165 1526.71522,1136 1520.00775,1136 C1513.55826,1136 1510.33356,1134.81165 1510.33356,1132.4349 L1510.33356,1045.6385 C1510.33356,1044.54155 1508.78571,1043.99307 1505.68996,1043.99307 L1435.2619,1043.99307 C1428.81241,1043.99307 1425.58771,1042.80472 1425.58771,1040.42798 C1425.58771,1038.14265 1428.81241,1037 1435.2619,1037 L1605.9145,1037 Z M1820.29441,1037 C1837.06308,1037 1845.44729,1039.87947 1845.44729,1045.6385 L1845.44729,1127.3615 C1845.44729,1129.82965 1843.12551,1131.88642 1838.48188,1133.53186 C1833.83824,1135.17729 1827.77582,1136 1820.29441,1136 L1695.30396,1136 C1688.85447,1136 1683.2435,1135.17729 1678.47088,1133.53186 C1673.69826,1131.88642 1671.31198,1129.82965 1671.31198,1127.3615 L1671.31198,1045.6385 C1671.31198,1039.87947 1679.30923,1037 1695.30396,1037 L1820.29441,1037 Z M1695.30396,1043.99307 C1692.46618,1043.99307 1691.04732,1044.54155 1691.04732,1045.6385 L1691.04732,1127.3615 C1691.04732,1128.45845 1692.46618,1129.00693 1695.30396,1129.00693 L1820.29441,1129.00693 C1823.39016,1129.00693 1824.93802,1128.45845 1824.93802,1127.3615 L1824.93802,1045.6385 C1824.93802,1044.54155 1823.39016,1043.99307 1820.29441,1043.99307 L1695.30396,1043.99307 Z M2072.59712,1037 C2079.30459,1037 2082.65827,1038.14265 2082.65827,1040.42798 L2082.65827,1086.91136 C2082.65827,1089.2881 2079.30459,1090.47645 2072.59712,1090.47645 L2048.60515,1090.47645 C2045.50939,1090.47645 2043.96154,1090.93351 2043.96154,1091.84765 C2043.96154,1092.30471 2044.09053,1092.57895 2044.34851,1092.67036 L2086.91491,1131.06371 C2087.43087,1131.79502 2087.68885,1132.25208 2087.68885,1132.4349 C2087.68885,1134.81165 2084.20618,1136 2077.24073,1136 C2072.5971,1136 2069.75937,1135.26871 2068.72745,1133.80609 L2021.9044,1091.57341 C2020.6145,1090.8421 2019.06665,1090.47645 2017.26079,1090.47645 L1929.80617,1090.47645 C1926.71042,1090.47645 1925.16256,1091.02493 1925.16256,1092.12188 L1925.16256,1132.4349 C1925.16256,1134.81165 1921.93787,1136 1915.48838,1136 C1908.78091,1136 1905.42723,1134.81165 1905.42723,1132.4349 L1905.42723,1040.42798 C1905.42723,1038.14265 1908.78091,1037 1915.48838,1037 L2072.59712,1037 Z M2062.92294,1045.6385 C2062.92294,1044.54155 2061.37508,1043.99307 2058.27933,1043.99307 L1929.80617,1043.99307 C1926.71042,1043.99307 1925.16256,1044.54155 1925.16256,1045.6385 L1925.16256,1081.83795 C1925.16256,1082.93491 1926.71042,1083.48338 1929.80617,1083.48338 L2058.27933,1083.48338 C2061.37508,1083.48338 2062.92294,1082.93491 2062.92294,1081.83795 L2062.92294,1045.6385 Z M2296.65122,1037 C2303.35869,1037 2306.71237,1038.14265 2306.71237,1040.42798 C2306.71237,1042.80472 2303.35869,1043.99307 2296.65122,1043.99307 L2248.2803,1043.99307 C2245.18454,1043.99307 2243.63669,1044.54155 2243.63669,1045.6385 L2243.63669,1127.3615 C2243.63669,1128.45845 2245.18454,1129.00693 2248.2803,1129.00693 L2296.65122,1129.00693 C2303.35869,1129.00693 2306.71237,1130.14957 2306.71237,1132.4349 C2306.71237,1134.81165 2303.35869,1136 2296.65122,1136 L2172.4347,1136 C2165.72723,1136 2162.37355,1134.81165 2162.37355,1132.4349 C2162.37355,1130.14957 2165.72723,1129.00693 2172.4347,1129.00693 L2219.25775,1129.00693 C2222.3535,1129.00693 2223.90136,1128.45845 2223.90136,1127.3615 L2223.90136,1045.6385 C2223.90136,1044.54155 2222.3535,1043.99307 2219.25775,1043.99307 L2172.4347,1043.99307 C2165.72723,1043.99307 2162.37355,1042.80472 2162.37355,1040.42798 C2162.37355,1038.14265 2165.72723,1037 2172.4347,1037 L2296.65122,1037 Z M2545.85819,1037 C2552.56566,1037 2555.91934,1038.14265 2555.91934,1040.42798 C2555.91934,1042.80472 2552.56566,1043.99307 2545.85819,1043.99307 L2405.77601,1043.99307 C2402.68026,1043.99307 2401.1324,1044.54155 2401.1324,1045.6385 L2401.1324,1078.95845 C2401.1324,1080.05541 2402.68026,1080.60388 2405.77601,1080.60388 L2497.48727,1080.60388 C2503.93676,1080.60388 2507.16146,1081.74653 2507.16146,1084.03186 C2507.16146,1086.4086 2503.93676,1087.59695 2497.48727,1087.59695 L2405.77601,1087.59695 C2402.68026,1087.59695 2401.1324,1088.14542 2401.1324,1089.24238 L2401.1324,1127.3615 C2401.1324,1128.45845 2402.68026,1129.00693 2405.77601,1129.00693 L2553.59754,1129.00693 C2560.305,1129.00693 2563.65869,1130.14957 2563.65869,1132.4349 C2563.65869,1134.81165 2560.305,1136 2553.59754,1136 L2391.45822,1136 C2384.75075,1136 2381.39707,1134.81165 2381.39707,1132.4349 L2381.39707,1040.42798 C2381.39707,1038.14265 2384.75075,1037 2391.45822,1037 L2545.85819,1037 Z M2787.32582,1037 C2793.7753,1037 2797,1038.14265 2797,1040.42798 L2797,1050.98615 C2797,1053.36289 2793.7753,1054.55125 2787.32582,1054.55125 C2780.61835,1054.55125 2777.26467,1053.36289 2777.26467,1050.98615 L2777.26467,1045.6385 C2777.26467,1044.54155 2775.71681,1043.99307 2772.62106,1043.99307 L2649.17847,1043.99307 C2646.08272,1043.99307 2644.53486,1044.54155 2644.53486,1045.6385 L2644.53486,1080.60388 C2644.53486,1081.60942 2646.08272,1082.11219 2649.17847,1082.11219 L2787.32582,1082.11219 C2793.7753,1082.11219 2797,1083.30054 2797,1085.67729 L2797,1132.4349 C2797,1134.81165 2793.7753,1136 2787.32582,1136 L2634.08675,1136 C2627.37928,1136 2624.02559,1134.81165 2624.02559,1132.4349 L2624.02559,1119.54571 C2624.02559,1117.16896 2627.37928,1115.98061 2634.08675,1115.98061 C2640.53623,1115.98061 2643.76093,1117.16896 2643.76093,1119.54571 L2643.76093,1127.3615 C2643.76093,1128.45845 2645.30878,1129.00693 2648.40454,1129.00693 L2772.62106,1129.00693 C2775.71681,1129.00693 2777.26467,1128.45845 2777.26467,1127.3615 L2777.26467,1090.75069 C2777.26467,1089.74515 2775.71681,1089.24238 2772.62106,1089.24238 L2634.86068,1089.24238 C2628.15321,1089.24238 2624.79953,1088.05403 2624.79953,1085.67729 L2624.79953,1040.42798 C2624.79953,1038.14265 2628.15321,1037 2634.86068,1037 L2787.32582,1037 Z" id="LABORATORIES"></path>
            </g>
            <g id="warplabs-logo-white">
                <path d="M1208.87429,0.143375288 C1192.83429,6.73020471 1149.01071,27.6882983 1117.50357,69.9038869 C1078.54929,122.598522 1050.47929,246.850077 1050.47929,246.850077 L1002.35929,275.293204 C992.620714,280.98183 986.605714,291.460877 986.032857,303.137529 L981.736429,398.047753 C981.163571,408.826201 986.605714,419.305248 995.485,424.694472 L1004.07786,430.083696 L1026.70571,400.742365 C1031.28857,394.754338 1039.02214,392.658529 1045.89643,395.353141 C1053.91643,398.646556 1064.80071,403.137576 1075.685,407.329194 C1086.85571,410.92201 1098.02643,414.215425 1106.04643,416.910037 C1113.20714,419.005846 1118.07643,425.892077 1118.07643,433.377111 L1118.93571,471.101679 L1128.67429,472.299285 C1138.98571,473.49689 1149.29714,468.706468 1155.02571,460.02383 L1207.15571,382.179482 C1213.45714,372.598639 1214.88929,360.323184 1210.59286,349.544736 L1189.39714,296.251298 C1189.39714,296.251298 1239.80857,180.083579 1239.80857,113.616482 C1240.095,60.3230441 1217.46714,15.7122448 1208.87429,0.143375288 Z M1146.43286,191.46083 C1125.81,183.975797 1114.63929,160.323091 1121.51357,138.466793 L1121.51357,138.466793 C1128.67429,116.909897 1151.30214,105.233245 1172.21143,112.418877 C1192.83429,119.90391 1204.005,143.556616 1197.13071,165.412914 L1197.13071,165.412914 C1189.68357,187.269211 1167.05571,198.945863 1146.43286,191.46083 Z" id="Shape"></path>
                <ellipse id="Oval" cx="1240.095" cy="667.209555" rx="25.2057143" ry="26.3473177"></ellipse>
                <ellipse id="Oval" cx="1153.88" cy="677.988003" rx="10.025" ry="10.4790468"></ellipse>
                <ellipse id="Oval" cx="876.903571" cy="468.107666" rx="48.9792857" ry="51.1976287"></ellipse>
                <ellipse id="Oval" cx="755.744286" cy="543.257402" rx="11.1707143" ry="11.6766522"></ellipse>
                <path d="M289.438571,619.904144 C287.72,623.49696 286.287857,627.089776 284.855714,630.682592 L289.152143,629.185585 L289.438571,619.904144 Z" id="Shape"></path>
                <path d="M1445.46429,914.814461 L1419.39929,867.808451 L1456.34857,829.48508 C1473.82071,811.221599 1483.55929,786.97009 1483.55929,761.221575 C1483.55929,759.425167 1483.55929,757.329358 1483.27286,755.53295 C1481.84071,755.53295 1480.12214,755.233548 1478.69,755.233548 C1455.48929,755.233548 1434.86643,765.712595 1420.545,782.778472 C1399.06286,765.712595 1372.13857,755.233548 1342.92286,755.233548 C1310.55643,755.233548 1280.76786,767.808405 1258.42643,788.766498 C1236.65786,750.143726 1198.84929,722.598803 1153.59357,716.910177 C1103.46857,712.718559 1084.56429,726.790421 1084.56429,726.790421 C1095.44857,710.622749 1110.34286,702.239512 1122.65929,698.347294 C1114.92571,677.688602 1101.17714,659.42512 1083.13214,646.550863 C1088.86071,621.700552 1077.11714,595.652636 1055.06214,584.574786 L1081.7,444.155559 L1051.33857,433.377111 L998.349286,564.514896 C978.299286,560.023876 957.676429,568.407114 945.932857,585.173589 C963.691429,590.263412 989.47,602.538866 1002.35929,632.179599 C965.123571,587.868201 897.526429,588.467003 864.300714,621.700552 C850.838571,609.125696 834.512143,599.245452 816.467143,592.658622 C788.683571,582.778378 760.040714,582.478977 733.975714,589.96401 C712.78,538.46698 663.800714,502.53882 606.801429,502.53882 C564.982857,502.53882 527.747143,521.700505 502.255,552.239442 C479.913571,539.065783 454.135,531.281348 426.637857,531.281348 C366.774286,531.281348 315.217143,567.209509 290.297857,619.604743 L290.011429,628.886184 L285.715,630.383191 L244.755714,644.455054 C170.284286,669.904167 120.159286,742.05989 120.159286,824.095856 C120.159286,928.287522 201.218571,1013.0181 300.895714,1013.0181 C327.82,1013.0181 353.885,1007.03007 377.945,995.05402 L434.944286,966.910294 L465.878571,1024.39535 C492.516429,1073.49717 580.45,1123.49719 697.885714,1123.49719 C718.508571,1123.49719 739.131429,1122.00019 759.467857,1118.70677 L818.758571,1109.42533 L834.798571,1169.9044 C857.999286,1258.2278 935.621429,1320.20387 1023.555,1320.20387 C1100.31786,1320.20387 1170.20643,1272.89846 1202,1199.54513 L1224.34143,1147.7487 L1277.33071,1159.12595 C1287.92857,1161.52116 1298.52643,1162.41937 1309.41071,1162.41937 C1396.485,1162.41937 1467.51929,1088.16784 1467.51929,997.149829 C1467.51929,979.48515 1464.655,962.119873 1459.49929,945.652799 C1455.20286,935.173752 1450.62,924.694705 1445.46429,914.814461 Z M299.75,850.143772 C282.277857,850.143772 267.956429,835.173706 267.956429,816.910224 C267.956429,798.646742 282.277857,783.676676 299.75,783.676676 C317.222143,783.676676 331.543571,798.646742 331.543571,816.910224 C331.543571,835.173706 317.222143,850.143772 299.75,850.143772 Z M619.117857,767.209602 C581.882143,767.209602 551.807143,735.772462 551.807143,696.850288 C551.807143,657.928114 581.882143,626.490973 619.117857,626.490973 C656.353571,626.490973 686.428571,657.928114 686.428571,696.850288 C686.428571,735.772462 656.353571,767.209602 619.117857,767.209602 Z M904.114286,895.053973 C898.385714,912.718652 879.767857,922.299495 862.868571,916.311468 C845.969286,910.323441 836.803571,890.862354 842.532143,873.197675 C848.260714,855.532997 866.878571,845.952154 883.777857,851.94018 C900.677143,857.928207 909.842857,877.389294 904.114286,895.053973 Z M965.982857,995.353421 C963.691429,1002.83845 955.957857,1006.73067 948.797143,1004.03606 C941.636429,1001.64085 937.912857,993.557013 940.490714,986.07198 C942.782143,978.586946 950.515714,974.694729 957.676429,977.389341 C964.837143,980.083953 968.560714,987.868388 965.982857,995.353421 Z M1108.62429,831.58089 C1100.60429,856.131799 1075.11214,869.305458 1051.625,860.922221 C1028.13786,852.538983 1015.535,825.892264 1023.555,801.341354 C1031.575,776.790445 1057.06714,763.616786 1080.55429,772.000023 C1104.04143,780.383261 1116.64429,807.329381 1108.62429,831.58089 Z M1259.28571,1019.30553 C1241.81357,1019.30553 1227.49214,1004.33546 1227.49214,986.07198 C1227.49214,967.808498 1241.81357,952.838431 1259.28571,952.838431 C1276.75786,952.838431 1291.07929,967.808498 1291.07929,986.07198 C1290.79286,1004.63486 1276.75786,1019.30553 1259.28571,1019.30553 Z" id="Shape"></path>
                <path d="M1601.85429,761.221575 C1601.85429,681.281418 1560.895,609.125696 1496.44857,570.203522 C1496.44857,567.209509 1496.44857,564.215495 1496.44857,561.520883 C1496.44857,418.706445 1399.92214,299.245311 1271.31571,270.203382 C1266.44643,287.868061 1261.29071,305.233338 1255.84857,321.101609 C1363.83214,342.957907 1445.46429,442.059749 1445.46429,561.520883 C1445.46429,575.592746 1444.31857,589.365207 1442.02714,602.838268 C1505.32786,625.293368 1550.87,687.568846 1550.87,761.221575 C1550.87,807.329381 1532.825,849.245568 1503.89571,879.485104 C1523.08643,914.215659 1533.97071,954.335438 1533.97071,997.149829 C1533.97071,1127.38941 1432.86143,1233.07808 1308.265,1233.07808 C1292.51143,1233.07808 1277.33071,1231.28168 1262.43643,1228.28766 C1221.19071,1323.79669 1129.24714,1390.56319 1022.40929,1390.56319 C901.25,1390.56319 798.995,1304.9344 768.347143,1188.46728 C745.432857,1192.0601 721.372857,1193.85651 696.74,1193.85651 C562.405,1193.85651 448.12,1137.56906 405.728571,1058.8265 C373.648571,1074.69478 337.558571,1083.67682 299.75,1083.67682 C162.550714,1083.67682 51.4164286,967.509097 51.4164286,824.095856 C51.4164286,708.826341 123.31,611.221505 222.700714,577.089753 C226.710714,432.478907 340.136429,316.610589 479.340714,316.610589 C492.802857,316.610589 505.978571,317.808194 519.154286,319.904004 C558.108571,254.335111 627.710714,210.622516 707.051429,210.622516 C759.181429,210.622516 807.301429,229.4848 845.11,261.221342 C883.491429,229.4848 932.184286,210.622516 984.887143,210.622516 C989.183571,210.622516 993.766429,210.921917 998.062857,210.921917 C1003.79143,194.155442 1010.09286,176.490763 1017.54,159.424887 C1006.94214,158.227281 996.057857,157.329077 984.887143,157.329077 C935.048571,157.329077 887.215,170.802138 845.11,196.850054 C803.577857,171.101539 755.457857,157.329077 706.765,157.329077 C623.127857,157.329077 545.792143,196.550653 494.521429,263.915954 C489.365714,263.616552 484.21,263.616552 479.054286,263.616552 C398.567857,263.616552 322.377857,295.951897 264.519286,354.634559 C215.253571,404.933984 184.032857,469.604672 174.580714,539.963987 C69.175,590.562813 0.145714286,700.443104 0.145714286,824.095856 C0.145714286,996.551026 134.480714,1136.97025 299.463571,1136.97025 C329.538571,1136.97025 359.040714,1132.47923 387.110714,1123.19779 C450.411429,1199.54513 566.415,1247.14995 696.453571,1247.14995 C708.77,1247.14995 721.086429,1246.55114 733.689286,1245.95234 C782.955,1364.51527 895.807857,1443.85662 1022.12286,1443.85662 C1112.34786,1443.85662 1196.55786,1403.13804 1255.27571,1335.47334 C1257.79095,1331.44198 1263.76964,1323.15803 1271.31571,1310.88501 C1278.86178,1298.61198 1283.94934,1288.52229 1286.20553,1286.16393 C1289.19311,1283.09222 1112.63429,1286.15585 1308.265,1286.16393 C1503.89571,1286.172 1584.955,1128.58702 1584.955,997.44923 C1584.955,959.724662 1577.79429,922.299495 1564.04571,887.269538 C1588.67857,850.443174 1601.85429,807.02998 1601.85429,761.221575 Z" id="Shape"></path>
            </g>
        </g>
    </g>
</svg>