<?xml version="1.0" encoding="UTF-8"?>
<svg width="1790px" height="1545px" viewBox="0 0 1790 1545" version="1.1" xmlns="http://www.w3.org/2000/svg" xmlns:xlink="http://www.w3.org/1999/xlink">
    <!-- Generator: Sketch 44.1 (41455) - http://www.bohemiancoding.com/sketch -->
    <title>warplabs-logo</title>
    <desc>Created with Sketch.</desc>
    <defs></defs>
    <g id="Page-1" stroke="none" stroke-width="1" fill="none" fill-rule="evenodd">
        <g id="warplabs-logo" transform="translate(-1.000000, -2.000000)" fill-rule="nonzero">
            <path d="M1351.85455,2.8803719 C1333.93223,9.92128099 1284.96591,32.3241736 1249.76136,77.45 C1206.23574,133.777273 1174.87169,266.594421 1174.87169,266.594421 L1121.10475,296.998347 C1110.22335,303.079132 1103.50248,314.280579 1102.8624,326.76219 L1098.06178,428.215289 C1097.42169,439.736777 1103.50248,450.938223 1113.42376,456.698967 L1123.025,462.459711 L1148.30826,431.095661 C1153.42893,424.694835 1162.07004,422.454545 1169.75103,425.334917 C1178.71219,428.855372 1190.87376,433.655992 1203.03533,438.13657 C1215.51694,441.977066 1227.99855,445.497521 1236.95971,448.377893 C1244.96074,450.618182 1250.40145,457.979132 1250.40145,465.980165 L1251.36157,506.305372 L1262.24298,507.585537 C1273.76446,508.865702 1285.28595,503.745041 1291.68678,494.463843 L1349.9343,411.253099 C1356.97521,401.011777 1358.57541,387.890083 1353.77479,376.368595 L1330.09174,319.40124 C1330.09174,319.40124 1386.41901,195.225207 1386.41901,124.176033 C1386.73905,67.2086777 1361.45579,19.5225207 1351.85455,2.8803719 Z M1282.08554,207.386777 C1259.04256,199.385744 1246.56095,174.102479 1254.24194,150.739463 L1254.24194,150.739463 C1262.24298,127.696488 1287.52624,115.214876 1310.88926,122.895868 C1333.93223,130.896901 1346.41384,156.180165 1338.73285,179.543182 L1338.73285,179.543182 C1330.41178,202.906198 1305.12851,215.38781 1282.08554,207.386777 Z" id="Shape" fill="#F2CD5F"></path>
            <circle id="Oval" fill="#F2CD5F" cx="1386.73905" cy="715.932438" r="28.1636364"></circle>
            <circle id="Oval" fill="#F2CD5F" cx="1290.40661" cy="727.453926" r="11.2014463"></circle>
            <circle id="Oval" fill="#F2CD5F" cx="980.926653" cy="503.104959" r="54.7270661"></circle>
            <circle id="Oval" fill="#F2CD5F" cx="845.549174" cy="583.435331" r="12.4816116"></circle>
            <path d="M324.521901,665.365909 C322.601653,669.206405 321.001446,673.046901 319.40124,676.887397 L324.20186,675.28719 L324.521901,665.365909 Z" id="Shape" fill="#FBB040"></path>
            <path d="M1616.20868,980.606612 L1587.08492,930.360124 L1628.37025,889.394835 C1647.89277,869.872314 1658.77417,843.948967 1658.77417,816.425413 C1658.77417,814.505165 1658.77417,812.264876 1658.45413,810.344628 C1656.85393,810.344628 1654.93368,810.024587 1653.33347,810.024587 C1627.41012,810.024587 1604.36715,821.226033 1588.36508,839.468388 C1564.36198,821.226033 1534.2781,810.024587 1501.63388,810.024587 C1465.46921,810.024587 1432.18492,823.466322 1407.22169,845.869215 C1382.89855,804.583884 1340.6531,775.140083 1290.08657,769.059298 C1234.07934,764.578719 1212.95661,779.620661 1212.95661,779.620661 C1225.11818,762.33843 1241.76033,753.377273 1255.52211,749.216736 C1246.88099,727.133884 1231.51901,707.611364 1211.3564,693.849587 C1217.75723,667.286157 1204.63554,639.442562 1179.99236,627.601033 L1209.7562,477.501653 L1175.83182,465.980165 L1116.62417,606.158264 C1094.22128,601.357645 1071.17831,610.318802 1058.05661,628.241116 C1077.89917,633.681818 1106.70289,646.803512 1121.10475,678.487603 C1079.49938,631.121488 1003.96963,631.76157 966.844835,667.286157 C951.802893,653.844421 933.560537,643.283058 913.397934,636.242149 C882.353926,625.680785 850.349793,625.360744 821.226033,633.361777 C797.542975,578.314669 742.815909,539.909711 679.127686,539.909711 C632.401653,539.909711 590.796281,560.392355 562.312603,593.03657 C537.34938,578.954752 508.545661,570.633678 477.821694,570.633678 C410.933058,570.633678 353.32562,609.038636 325.482025,665.045868 L325.161983,674.967149 L320.361364,676.567355 L274.595455,691.609298 C191.384711,718.81281 135.377479,795.942769 135.377479,883.634091 C135.377479,995.008471 225.949174,1085.58017 337.323554,1085.58017 C367.407438,1085.58017 396.531198,1079.17934 423.414669,1066.37769 L487.102893,1036.2938 L521.667355,1097.74174 C551.431198,1150.22851 649.683884,1203.67541 780.900826,1203.67541 C803.943802,1203.67541 826.986777,1202.07521 849.709711,1198.55475 L915.958264,1188.63347 L933.880579,1253.28182 C959.803926,1347.69401 1046.53512,1413.94256 1144.78781,1413.94256 C1230.55888,1413.94256 1308.64897,1363.37603 1344.17355,1284.96591 L1369.13678,1229.59876 L1428.34442,1241.76033 C1440.18595,1244.32066 1452.02748,1245.28079 1464.18905,1245.28079 C1561.48161,1245.28079 1640.85186,1165.91054 1640.85186,1068.61798 C1640.85186,1049.73554 1637.65145,1031.17314 1631.8907,1013.57087 C1627.09008,1002.36942 1621.96942,991.167975 1616.20868,980.606612 Z M336.043388,911.477686 C316.520868,911.477686 300.518802,895.47562 300.518802,875.953099 C300.518802,856.430579 316.520868,840.428512 336.043388,840.428512 C355.565909,840.428512 371.567975,856.430579 371.567975,875.953099 C371.567975,895.47562 355.565909,911.477686 336.043388,911.477686 Z M692.889463,822.82624 C651.284091,822.82624 617.679752,789.221901 617.679752,747.616529 C617.679752,706.011157 651.284091,672.406818 692.889463,672.406818 C734.494835,672.406818 768.099174,706.011157 768.099174,747.616529 C768.099174,789.221901 734.494835,822.82624 692.889463,822.82624 Z M1011.33058,959.483884 C1004.92975,978.366322 984.127066,988.607645 965.244628,982.206818 C946.36219,975.805992 936.120868,955.003306 942.521694,936.120868 C948.922521,917.23843 969.725207,906.997107 988.607645,913.397934 C1007.49008,919.79876 1017.7314,940.601446 1011.33058,959.483884 Z M1080.4595,1066.69773 C1077.89917,1074.69876 1069.25806,1078.8593 1061.25702,1075.97893 C1053.25599,1073.4186 1049.09545,1064.77748 1051.97583,1056.77645 C1054.53616,1048.77541 1063.17727,1044.61488 1071.17831,1047.49525 C1079.17934,1050.37562 1083.33988,1058.69669 1080.4595,1066.69773 Z M1239.84008,891.635124 C1230.87893,917.878512 1202.39525,931.960331 1176.15186,922.999174 C1149.90847,914.038017 1135.82665,885.554339 1144.78781,859.31095 C1153.74897,833.067562 1182.23264,818.985744 1208.47603,827.946901 C1234.71942,836.908058 1248.80124,865.711777 1239.84008,891.635124 Z M1408.18182,1092.30103 C1388.6593,1092.30103 1372.65723,1076.29897 1372.65723,1056.77645 C1372.65723,1037.25393 1388.6593,1021.25186 1408.18182,1021.25186 C1427.70434,1021.25186 1443.7064,1037.25393 1443.7064,1056.77645 C1443.38636,1076.61901 1427.70434,1092.30103 1408.18182,1092.30103 Z" id="Shape" fill="#F2CD5F"></path>
            <path d="M1790.95124,816.425413 C1790.95124,730.97438 1745.18533,653.844421 1673.17603,612.23905 C1673.17603,609.038636 1673.17603,605.838223 1673.17603,602.957851 C1673.17603,450.29814 1565.32211,322.601653 1421.62355,291.557645 C1416.18285,310.440083 1410.42211,329.002479 1404.34132,345.964669 C1524.9969,369.327686 1616.20868,475.261364 1616.20868,602.957851 C1616.20868,617.999793 1614.92851,632.721694 1612.36818,647.123554 C1683.09731,671.126653 1733.98388,737.695248 1733.98388,816.425413 C1733.98388,865.711777 1713.82128,910.517562 1681.49711,942.841736 C1702.93988,979.966529 1715.10145,1022.85207 1715.10145,1068.61798 C1715.10145,1207.83595 1602.12686,1320.81054 1462.90888,1320.81054 C1445.30661,1320.81054 1428.34442,1318.89029 1411.70227,1315.68988 C1365.61632,1417.78306 1262.88306,1489.15227 1143.50764,1489.15227 C1008.13017,1489.15227 893.875413,1397.62045 859.630992,1273.12438 C834.027686,1276.96488 807.144215,1278.88512 779.620661,1278.88512 C629.521281,1278.88512 501.824793,1218.71736 454.458678,1134.54649 C418.61405,1151.50868 378.288843,1161.10992 336.043388,1161.10992 C182.743595,1161.10992 58.567562,1036.93388 58.567562,883.634091 C58.567562,760.418182 138.897934,656.084711 249.952273,619.6 C254.432851,465.020041 381.169215,341.16405 536.709298,341.16405 C551.75124,341.16405 566.47314,342.444215 581.195041,344.684504 C624.720661,274.595455 702.490702,227.869421 791.142149,227.869421 C849.389669,227.869421 903.156612,248.032025 945.402066,281.956405 C988.287603,248.032025 1042.69463,227.869421 1101.58223,227.869421 C1106.38285,227.869421 1111.50351,228.189463 1116.30413,228.189463 C1122.70496,210.267149 1129.74587,191.384711 1138.06694,173.142355 C1126.22541,171.86219 1114.06384,170.902066 1101.58223,170.902066 C1045.89504,170.902066 992.44814,185.303926 945.402066,213.147521 C898.996074,185.623967 845.229132,170.902066 790.822107,170.902066 C697.370041,170.902066 610.958884,212.827479 553.671488,284.836777 C547.910744,284.516736 542.15,284.516736 536.389256,284.516736 C446.457645,284.516736 361.326653,319.081198 296.678306,381.809298 C241.631198,435.57624 206.746694,504.705165 196.185331,579.914876 C78.410124,634.00186 1.28016529,751.457025 1.28016529,883.634091 C1.28016529,1067.97789 151.379545,1218.07727 335.723347,1218.07727 C369.327686,1218.07727 402.291942,1213.27665 433.655992,1203.35537 C504.385124,1284.96591 634.00186,1335.85248 779.30062,1335.85248 C793.062397,1335.85248 806.824174,1335.2124 820.905992,1334.57231 C875.953099,1461.30868 1002.04938,1546.11963 1143.1876,1546.11963 C1244.00062,1546.11963 1338.09277,1502.59401 1403.70124,1430.26467 C1406.51164,1425.95539 1413.19194,1417.10037 1421.62355,1403.98128 C1430.05516,1390.86218 1435.73975,1380.07694 1438.2607,1377.55599 C1441.59889,1374.27253 1244.32066,1377.54736 1462.90888,1377.55599 C1681.49711,1377.56462 1772.0688,1209.11612 1772.0688,1068.93802 C1772.0688,1028.61281 1764.06777,988.607645 1748.70579,951.16281 C1776.22934,911.797727 1790.95124,865.391736 1790.95124,816.425413 Z" id="Shape" fill="#FFFFFF"></path>
        </g>
    </g>
</svg>